<?xml version="1.0" encoding="utf-8"?>
<!-- Generator: Adobe Illustrator 15.0.0, SVG Export Plug-In  -->
<!DOCTYPE svg PUBLIC "-//W3C//DTD SVG 1.1//EN" "http://www.w3.org/Graphics/SVG/1.1/DTD/svg11.dtd" [
	<!ENTITY ns_flows "http://ns.adobe.com/Flows/1.0/">
]>
<svg version="1.1"
	 xmlns="http://www.w3.org/2000/svg" xmlns:xlink="http://www.w3.org/1999/xlink" xmlns:a="http://ns.adobe.com/AdobeSVGViewerExtensions/3.0/"
	 x="0px" y="0px" width="109px" height="60px" viewBox="-2.592 -5.202 109 60"
	 overflow="visible" enable-background="new -2.592 -5.202 109 60" xml:space="preserve">
<defs>
</defs>
<g>
	<polygon fill="#CC6985" points="26.812,33.72 23.58,36.337 26.992,38.827 30.049,35.86 	"/>
</g>
<path fill="#B19D9A" d="M52.308,15.038c1.082,3.23,1.806,6.837,1.806,10.622c0,5.044-1.558,9.53-4.322,13.167
	c0,0-16.51-5.283-16.51-12.736C33.281,18.639,52.308,15.038,52.308,15.038z"/>
<path fill="#F99F47" d="M1,25.66C1,12.209,10.139,1,12.037,1c1.896,0,7.243,5.863,10.002,9.312c2.932-0.517,5.518-0.517,5.518-0.517
	s-0.495,11.462-8.214,19.182C11.624,36.696,1,25.66,1,25.66z"/>
<path fill="none" stroke="#000000" stroke-width="2" stroke-linecap="round" stroke-linejoin="round" stroke-miterlimit="10" d="
	M54.113,25.66C54.113,12.209,44.975,1,43.076,1c-1.896,0-7.242,5.863-10.002,9.312c-2.932-0.517-5.518-0.517-5.518-0.517
	s-2.586,0-5.518,0.517C19.279,6.863,13.933,1,12.037,1C10.139,1,1,12.209,1,25.66c0,13.45,11.08,22.936,26.557,22.936
	C43.033,48.596,54.113,39.11,54.113,25.66z"/>
<path fill="none" stroke="#000000" stroke-width="2" stroke-linecap="round" stroke-linejoin="round" stroke-miterlimit="10" d="
	M17.425,33.334c0,0,3.945,5.497,9.442,0c5.949,5.95,8.924,1.221,8.924,1.221"/>
<ellipse stroke="#000000" stroke-width="2" stroke-linecap="round" stroke-linejoin="round" stroke-miterlimit="10" cx="26.811" cy="30.489" rx="2.981" ry="1.512"/>
<path fill="#FFFFFF" stroke="#000000" stroke-width="2" stroke-linecap="round" stroke-linejoin="round" stroke-miterlimit="10" d="
	M79.322,1C62.271,1,61,6.847,61,16.359c0,3.312,0.543,6.96,3.448,9.586l-4.524,5.554l8.626-2.615
	c5.613,3.237,13.055,2.834,21.766,2.834c10.444,0,13.74-7.866,12.459-18.95C101.124,5.854,94.713,1,79.322,1z"/>
<text transform="matrix(1 0 0 1 75.4736 15.0381)"><tspan x="0" y="0" font-family="'Kalam-Bold'" font-size="12">All</tspan><tspan x="-8.118" y="10" font-family="'Kalam-Bold'" font-size="12">done!</tspan></text>
<circle stroke="#000000" stroke-width="2" stroke-linecap="round" stroke-linejoin="round" stroke-miterlimit="10" cx="13.675" cy="24.481" r="2.408"/>
<circle stroke="#000000" stroke-width="2" stroke-linecap="round" stroke-linejoin="round" stroke-miterlimit="10" cx="40.835" cy="24.481" r="2.407"/>
<path fill="none" stroke="#000000" stroke-width="2" stroke-linecap="round" stroke-linejoin="round" stroke-miterlimit="10" d="
	M23.794,36.242c0,1.33,1.352,2.407,3.017,2.407c1.666,0,3.017-1.077,3.017-2.407"/>
</svg>
